{"title":"The.Green.Hornet.2011.R5.LiNE.AC3.XViD-T0XiCiNK","uid":6202202,"size":1940593393,"categoryP":"video","categoryS":"movies","magnet":"?xt=urn:btih:0e6e0e92cf78d7d81d93f08be2615838184ebc75&amp;dn=The.Green.Hornet.2011.R5.LiNE.AC3.XViD-T0XiCiNK&amp;tr=udp%3A%2F%2Ftracker.openbittorrent.com%3A80&amp;tr=udp%3A%2F%2Fopen.demonii.com%3A1337&amp;tr=udp%3A%2F%2Ftracker.coppersurfer.tk%3A6969&amp;tr=udp%3A%2F%2Fexodus.desync.com%3A6969","seeders":1,"leechers":0,"uploader":"SAFCukO09","files":4,"time":1298659353,"description":"[center][img]http://www.moviesonline.ca/movie-gallery/albums/userpics//poster_green-hornet.jpg[/img]\n\n\n::::::::::::::Enjoy:Another:Release:From:T0XiCiNK::::::::::::::\n\n\n\nFile:: The.Green.Hornet.2011.R5.LiNE.AC3.XViD-T0XiCiNK\n\nVideo Source:: ....ELEKTRI4KA\n\nAudio Source:: ....Own\n\nLanguage::English\n\nIMDB: http://www.imdb.com/title/tt0990407/\n\n\n\nFollowing the death of his father, Britt Reid, heir to his father's large company,\n\nteams up with his late dad's assistant Kato to become a masked crime fighting team.\n\n\n\nSpecs::\n\n\n\nGeneral\n\n\n\nFormat                           : AVI\n\nFormat/Info                      : Audio Video Interleave\n\nFile size                        : 1.79 GiB\n\nDuration                         : 1h 54mn\n\nOverall bit rate                 : 2 245 Kbps\n\nWriting application              : VirtualDubMod 1.5.10.2 (build 2540/release)\n\nWriting library                  : VirtualDubMod build 2540/release\n\n\n\nVideo\n\nID                               : 0\n\nFormat                           : MPEG-4 Visual\n\nFormat profile                   : Advanced Simple@L5\n\nFormat settings, BVOP            : 2\n\nFormat settings, QPel            : No\n\nFormat settings, GMC             : No warppoints\n\nFormat settings, Matrix          : Custom\n\nCodec ID                         : XVID\n\nCodec ID/Hint                    : XviD\n\nDuration                         : 1h 54mn\n\nBit rate                         : 1 787 Kbps\n\nWidth                            : 720 pixels\n\nHeight                           : 304 pixels\n\nDisplay aspect ratio             : 2.35:1\n\nFrame rate                       : 25.000 fps\n\nColor space                      : YUV\n\nChroma subsampling               : 4:2:0\n\nBit depth                        : 8 bits\n\nScan type                        : Progressive\n\nCompression mode                 : Lossy\n\nBits/(Pixel*Frame)               : 0.327\n\nStream size                      : 1.42 GiB (80%)\n\nWriting library                  : XviD 58\n\n\n\nAudio\n\nID                               : 1\n\nFormat                           : AC-3\n\nFormat/Info                      : Audio Coding 3\n\nMode extension                   : CM (complete main)\n\nCodec ID                         : 2000\n\nDuration                         : 1h 54mn\n\nBit rate mode                    : Constant\n\nBit rate                         : 448 Kbps\n\nChannel(s)                       : 6 channels\n\nChannel positions                : Front: L C R, Side: L R, LFE\n\nSampling rate                    : 48.0 KHz\n\nBit depth                        : 16 bits\n\nCompression mode                 : Lossy\n\nStream size                      : 366 MiB (20%)\n\nAlignment                        : Split accross interleaves\n\nInterleave, duration             : 40 ms (1.00 video frame)\n\nInterleave, preload duration     : 500 ms\n\n\n\n\n\nNOTES:: T0XiCiNK is proud to present the first The Green Hornet R5, in 5.1 using our LiNE and genuine russian\n\nsurround channels. Enjoy\n\n\n\nNote: ~T0XiC-iNK Merge is complete, we are now T0XiCiNK~\n\n\n\n::Why Complain? Whats Free Is Free::\n\n\n\n::We are always looking for friends with unreleased DVD's, Screeners, R5's, Audio, Cams, Silvers,\n\n...and any other good sources you may have to offer -\n\n..contact us: &lt;a class=&quot;__cf_email__&quot; href=&quot;/cdn-cgi/l/email-protection&quot; data-cfemail=&quot;c8bcf8b0a1abbaada4ada9bbadbb88a0bdbba0a5a9a1a4e6aba7a5&quot;&gt;[email&amp;#160;protected]&lt;/a&gt;&lt;script cf-hash='f9e31' type=&quot;text/javascript&quot;&gt;\n/* &lt;![CDATA[ */!function(){try{var t=&quot;currentScript&quot;in document?document.currentScript:function(){for(var t=document.getElementsByTagName(&quot;script&quot;),e=t.length;e--;)if(t[e].getAttribute(&quot;cf-hash&quot;))return t[e]}();if(t&amp;&amp;t.previousSibling){var e,r,n,i,c=t.previousSibling,a=c.getAttribute(&quot;data-cfemail&quot;);if(a){for(e=&quot;&quot;,r=parseInt(a.substr(0,2),16),n=2;a.length-n;n+=2)i=parseInt(a.substr(n,2),16)^r,e+=String.fromCharCode(i);e=document.createTextNode(e),c.parentNode.replaceChild(e,c)}}}catch(u){}}();/* ]]&gt; */&lt;/script&gt; or &lt;a class=&quot;__cf_email__&quot; href=&quot;/cdn-cgi/l/email-protection&quot; data-cfemail=&quot;ec88858b85988d80c2858287ac80859a89c28f8381&quot;&gt;[email&amp;#160;protected]&lt;/a&gt;&lt;script cf-hash='f9e31' type=&quot;text/javascript&quot;&gt;\n/* &lt;![CDATA[ */!function(){try{var t=&quot;currentScript&quot;in document?document.currentScript:function(){for(var t=document.getElementsByTagName(&quot;script&quot;),e=t.length;e--;)if(t[e].getAttribute(&quot;cf-hash&quot;))return t[e]}();if(t&amp;&amp;t.previousSibling){var e,r,n,i,c=t.previousSibling,a=c.getAttribute(&quot;data-cfemail&quot;);if(a){for(e=&quot;&quot;,r=parseInt(a.substr(0,2),16),n=2;a.length-n;n+=2)i=parseInt(a.substr(n,2),16)^r,e+=String.fromCharCode(i);e=document.createTextNode(e),c.parentNode.replaceChild(e,c)}}}catch(u){}}();/* ]]&gt; */&lt;/script&gt;\n\n\n\n::::::::::::::::::::::::::::::::::::   Respect To   :::::::::::::::::::::::::::::::::::::\n\n::IMAGiNE,FLAWL3SS,Hive-CM8,DiGiTALiNK,Tranz,Vik,OneTwo,Joey,bob,Unevano &amp; our friends on utn and PA::\n\n                      &quot;and to all of you who support us, Thank-You&quot;\n\n\n\n\n[img]http://img189.imageshack.us/img189/4417/369816773930.jpg[/img]\n[img]http://img11.imageshack.us/img11/5263/369836774110.jpg[/img]\n[img]http://img684.imageshack.us/img684/8726/369826773959.jpg[/img]\n\n\n\n[/center]","torrent":{"xt":"urn:btih:0e6e0e92cf78d7d81d93f08be2615838184ebc75","amp;dn":"The.Green.Hornet.2011.R5.LiNE.AC3.XViD-T0XiCiNK","amp;tr":["udp%3A%2F%2Ftracker.openbittorrent.com%3A80","udp%3A%2F%2Fopen.demonii.com%3A1337","udp%3A%2F%2Ftracker.coppersurfer.tk%3A6969","udp%3A%2F%2Fexodus.desync.com%3A6969"],"infoHash":"0e6e0e92cf78d7d81d93f08be2615838184ebc75","infoHashBuffer":{"type":"Buffer","data":[14,110,14,146,207,120,215,216,29,147,240,139,226,97,88,56,24,78,188,117]},"announce":[],"urlList":[]}}